<svg xmlns="http://www.w3.org/2000/svg" viewBox="0 0 3100 620" role="img" aria-labelledby="logo-title logo-desc">
  <title id="logo-title">Nibbles with Nifa</title>
  <desc id="logo-desc">A light blue Cabagges-inspired bubble wordmark reading Nibbles.</desc>
  <defs>
    <filter id="lift" x="-8%" y="-14%" width="116%" height="128%">
      <feDropShadow dx="0" dy="15" flood-color="#0878c9" flood-opacity="0.16" stdDeviation="10"/>
    </filter>
    <style>
      .body {
        fill: #43bdfb;
        filter: url(#lift);
        stroke: #087ed6;
        stroke-linejoin: round;
        stroke-width: 18;
      }
      .cut {
        fill: none;
        stroke: #fffdf8;
        stroke-linecap: round;
        stroke-linejoin: round;
      }
      .cut-fat {
        stroke-width: 50;
      }
      .cut-mid {
        stroke-width: 36;
      }
      .cut-small {
        stroke-width: 24;
      }
    </style>
  </defs>

  <g aria-hidden="true" transform="translate(68 64)">
    <path class="body" d="M29 193c0-80 54-133 136-133 44 0 82 15 108 42 31-27 73-42 121-42 96 0 153 61 153 165v185c0 29-23 52-54 52h-92c-31 0-54-23-54-52V230c0-31-15-49-41-49-30 0-49 22-49 59v170c0 29-23 52-54 52H83c-31 0-54-23-54-52Z"/>
    <path class="body" d="M558 177c0-41 30-70 74-70h75c43 0 74 29 74 70v233c0 41-31 70-74 70h-75c-44 0-74-29-74-70Zm0-95c0-41 31-70 75-70h71c45 0 76 29 76 70v4c0 41-31 70-76 70h-71c-44 0-75-29-75-70Z"/>
    <path class="body" d="M796 74c0-36 25-62 62-62h88c37 0 62 26 62 62v73c31-53 89-84 165-84 117 0 203 88 203 206 0 121-90 211-211 211-74 0-130-29-161-79v9c0 29-23 52-53 52h-93c-37 0-62-26-62-62Zm205 198c0 54 39 93 92 93 54 0 93-40 93-93 0-54-39-93-93-93-53 0-92 39-92 93Z"/>
    <path class="body" d="M1354 74c0-36 25-62 62-62h88c37 0 62 26 62 62v73c31-53 89-84 165-84 117 0 203 88 203 206 0 121-90 211-211 211-74 0-130-29-161-79v9c0 29-23 52-53 52h-93c-37 0-62-26-62-62Zm205 198c0 54 39 93 92 93 54 0 93-40 93-93 0-54-39-93-93-93-53 0-92 39-92 93Z"/>
  </g>

  <g aria-hidden="true" transform="translate(72 64)">
    <path class="body" d="M1902 74c0-36 25-62 62-62h88c37 0 62 26 62 62v336c0 36-25 62-62 62h-88c-37 0-62-26-62-62Z"/>
  </g>

  <g aria-hidden="true" transform="translate(68 64)">
    <path class="body" d="M2043 268c0-120 94-207 224-207 123 0 213 77 213 184 0 73-42 115-114 115h-133c18 33 58 52 111 52 41 0 73-8 101-24 41-22 87-1 87 43v10c0 26-13 47-36 61-43 26-101 40-169 40-166 0-284-113-284-274Zm246-55c0-28-21-49-50-49-31 0-53 21-57 49Z"/>
    <path class="body" d="M2531 417c-18-12-27-30-27-52v-13c0-45 45-68 85-47 41 22 82 33 121 33 27 0 43-7 43-21 0-16-16-20-74-33-88-19-157-56-157-151 0-102 87-171 219-171 58 0 112 10 154 28 29 13 44 36 44 66v12c0 45-44 68-84 49-32-15-65-23-98-23-28 0-45 8-45 22 0 16 18 21 78 33 97 20 161 61 161 153 0 105-88 175-223 175-72 0-142-21-197-60Z"/>
  </g>

  <g aria-hidden="true" transform="translate(68 64)">
    <path class="cut cut-fat" d="M70 148c58-52 149-59 223-22"/>
    <path class="cut cut-mid" d="M86 332c45 48 107 63 196 45"/>
    <path class="cut cut-mid" d="M370 128c58 3 94 29 113 78"/>
    <path class="cut cut-small" d="M602 73c0 31 0 54 0 80"/>
    <path class="cut cut-mid" d="M1011 118c70-42 167-32 233 28"/>
    <path class="cut cut-fat" d="M1012 342c69 61 173 62 244 3"/>
    <path class="cut cut-mid" d="M1570 118c70-42 167-32 233 28"/>
    <path class="cut cut-fat" d="M1571 342c69 61 173 62 244 3"/>
    <path class="cut cut-small" d="M1955 73c0 31 0 54 0 80"/>
    <path class="cut cut-mid" d="M2200 145c72-30 155-15 207 39"/>
    <path class="cut cut-fat" d="M2181 350c75 45 167 47 252 7"/>
    <path class="cut cut-mid" d="M2649 137c67-24 135-22 192 6"/>
    <path class="cut cut-mid" d="M2594 361c56 34 123 39 198 15"/>
  </g>
</svg>
